<?xml version="1.0" standalone="no"?>
<!DOCTYPE svg PUBLIC "-//W3C//DTD SVG 20010904//EN"
 "http://www.w3.org/TR/2001/REC-SVG-20010904/DTD/svg10.dtd">
<svg version="1.0" xmlns="http://www.w3.org/2000/svg"
 width="194.000000pt" height="194.000000pt" viewBox="0 0 194.000000 194.000000"
 preserveAspectRatio="xMidYMid meet">
<metadata>
Created by potrace 1.11, written by Peter Selinger 2001-2013
</metadata>
<g transform="translate(0.000000,194.000000) scale(0.100000,-0.100000)"
fill="#000000" stroke="none">
<path d="M248 1686 c-58 -16 -118 -56 -141 -95 -15 -26 -17 -63 -17 -333 0
-277 2 -305 18 -331 34 -50 88 -82 173 -101 l26 -6 6 -152 c4 -84 12 -157 17
-162 7 -7 55 34 149 128 l138 138 5 -46 c7 -59 44 -107 105 -137 46 -23 60
-24 325 -29 l278 -5 189 -157 c104 -87 196 -158 205 -158 20 0 19 3 -39 187
l-43 133 27 7 c44 10 94 39 126 73 l30 31 3 319 3 318 -32 37 c-55 62 -99 79
-225 83 l-112 4 -4 75 c-4 76 -4 76 -50 118 -82 74 -94 75 -639 74 -349 0
-486 -4 -521 -13z m1053 -47 c21 -7 54 -25 73 -41 l36 -29 0 -309 0 -309 -36
-29 c-59 -48 -87 -52 -415 -52 l-304 0 -147 -147 -148 -148 -1 120 c-1 151 -6
169 -44 173 -57 6 -122 33 -151 63 l-29 30 0 299 0 299 29 30 c56 59 63 59
605 60 343 1 505 -2 532 -10z"/>
<path d="M410 1235 l0 -85 65 0 c78 0 88 18 13 22 -49 3 -53 5 -53 28 0 23 4
25 48 28 59 4 62 22 3 22 -31 0 -46 5 -50 16 -10 26 3 34 55 34 27 0 49 5 49
10 0 6 -28 10 -65 10 l-65 0 0 -85z"/>
<path d="M550 1310 c0 -5 14 -10 30 -10 l30 0 0 -75 c0 -60 3 -75 15 -75 12 0
15 15 15 75 0 73 1 75 25 75 14 0 25 5 25 10 0 6 -30 10 -70 10 -40 0 -70 -4
-70 -10z"/>
<path d="M731 1294 c-29 -37 -27 -89 4 -119 31 -31 84 -34 110 -5 24 26 13 37
-17 16 -12 -9 -30 -16 -39 -16 -42 0 -66 81 -33 114 20 20 58 21 74 1 16 -19
30 -19 30 0 0 20 -32 35 -74 35 -25 0 -40 -7 -55 -26z"/>
<path d="M890 1235 c0 -85 16 -119 22 -47 3 36 4 37 46 40 l42 3 0 -40 c0 -44
16 -55 25 -18 10 39 1 140 -12 145 -9 2 -13 -8 -13 -33 l0 -36 -42 3 c-40 3
-43 5 -46 36 -7 66 -22 29 -22 -53z"/>
</g>
</svg>
